HIERARCHY
ROOT joint_Root
{
	OFFSET 0.0 0.0 0.0
	CHANNELS 6 Xposition Yposition Zposition Zrotation Xrotation Yrotation 
	JOINT Hips
	{
		OFFSET -0.726466 93.3139 -2.00062
		CHANNELS 6 Xposition Yposition Zposition Zrotation Xrotation Yrotation 
		JOINT Spine
		{
			OFFSET 15.7357 0.0 0.0
			CHANNELS 6 Xposition Yposition Zposition Zrotation Xrotation Yrotation 
			JOINT Chest
			{
				OFFSET 8.98455 -0.406207 0.0
				CHANNELS 6 Xposition Yposition Zposition Zrotation Xrotation Yrotation 
				JOINT Neck
				{
					OFFSET 16.3773 0.0 0.0
					CHANNELS 6 Xposition Yposition Zposition Zrotation Xrotation Yrotation 
					JOINT Head
					{
						OFFSET 6.45672 0.0 0.0
						CHANNELS 6 Xposition Yposition Zposition Zrotation Xrotation Yrotation 
						End Site
						{
							OFFSET 0.0 0.0 0.0
						}
					}
				}
				JOINT Shoulder_L
				{
					OFFSET 12.9942 -0.242716 4.98039
					CHANNELS 6 Xposition Yposition Zposition Zrotation Xrotation Yrotation 
					JOINT UpperArm_L
					{
						OFFSET 5.34809 0.0 0.0
						CHANNELS 6 Xposition Yposition Zposition Zrotation Xrotation Yrotation 
						JOINT LowerArm_L
						{
							OFFSET 24.3286 1.87007e-05 0.0
							CHANNELS 6 Xposition Yposition Zposition Zrotation Xrotation Yrotation 
							JOINT Hand_L
							{
								OFFSET 22.2916 0.0 0.0
								CHANNELS 6 Xposition Yposition Zposition Zrotation Xrotation Yrotation 
								End Site
								{
									OFFSET 0.0 0.0 0.0
								}
							}
						}
					}
				}
				JOINT Shoulder_R
				{
					OFFSET 12.9945 -0.242716 -4.98039
					CHANNELS 6 Xposition Yposition Zposition Zrotation Xrotation Yrotation 
					JOINT UpperArm_R
					{
						OFFSET -5.34813 0.0 0.0
						CHANNELS 6 Xposition Yposition Zposition Zrotation Xrotation Yrotation 
						JOINT LowerArm_R
						{
							OFFSET -24.3289 0.000322201 0.0
							CHANNELS 6 Xposition Yposition Zposition Zrotation Xrotation Yrotation 
							JOINT Hand_R
							{
								OFFSET -22.2915 -0.000108084 0.0
								CHANNELS 6 Xposition Yposition Zposition Zrotation Xrotation Yrotation 
								End Site
								{
									OFFSET 0.0 0.0 0.0
								}
							}
						}
					}
				}
			}
		}
		JOINT UpperLeg_L
		{
			OFFSET -2.19248 -6.46944 0.0
			CHANNELS 6 Xposition Yposition Zposition Zrotation Xrotation Yrotation 
			JOINT LowerLeg_L
			{
				OFFSET 39.0811 0.0 -1.23785e-05
				CHANNELS 6 Xposition Yposition Zposition Zrotation Xrotation Yrotation 
				JOINT Foot_L
				{
					OFFSET 40.9854 0.0 -1.26872e-05
					CHANNELS 6 Xposition Yposition Zposition Zrotation Xrotation Yrotation 
					JOINT Toes_L
					{
						OFFSET 11.7543 0.0 0.0
						CHANNELS 6 Xposition Yposition Zposition Zrotation Xrotation Yrotation 
						End Site
						{
							OFFSET 0.0 0.0 0.0
						}
					}
				}
			}
		}
		JOINT UpperLeg_R
		{
			OFFSET -2.19251 6.46944 0.0
			CHANNELS 6 Xposition Yposition Zposition Zrotation Xrotation Yrotation 
			JOINT LowerLeg_R
			{
				OFFSET -39.0811 -0.00228153 -0.0401928
				CHANNELS 6 Xposition Yposition Zposition Zrotation Xrotation Yrotation 
				JOINT Foot_R
				{
					OFFSET -40.9854 0.0 0.0
					CHANNELS 6 Xposition Yposition Zposition Zrotation Xrotation Yrotation 
					JOINT Toes_R
					{
						OFFSET -11.7543 0.0 0.0
						CHANNELS 6 Xposition Yposition Zposition Zrotation Xrotation Yrotation 
						End Site
						{
							OFFSET 0.0 0.0 0.0
						}
					}
				}
			}
		}
	}
}
MOTION
Frames:	8
Frame Time:	0.0333333
0.000000 0.000000 0.000000 0.000000 0.000000 -0.000000 -0.123529 93.043300 -0.638327 88.995900 -2.987890 0.589738 15.735700 0.000005 -0.000001 93.840700 86.895300 -93.745100 8.984550 -0.406207 -0.000000 -1.570990 0.408037 0.196770 16.377300 -0.000001 -0.000001 2.380920 -2.172160 3.135390 6.456720 -0.000001 -0.000000 6.019860 -0.796933 -3.632460 12.994200 -0.242716 4.980390 -90.500500 1.607260 -72.699900 5.348090 -0.000007 -0.000001 -66.974600 37.019000 -14.784000 24.328600 0.000019 0.000005 5.749520 13.354800 -23.548100 22.291600 -0.000001 0.000005 1.890830 5.492680 -6.236940 12.994500 -0.242716 -4.980390 87.732200 7.487850 -73.096600 -5.348130 -0.000001 -0.000004 -63.733600 39.225400 -13.216800 -24.328900 0.000322 -0.000009 5.542530 13.891500 -22.007800 -22.291500 -0.000108 -0.000004 3.199620 5.327800 -0.703061 -2.192480 -6.469440 -0.000000 -177.104000 -8.852310 -3.080370 39.081100 -0.000007 -0.000012 -0.051745 0.177358 16.264800 40.985400 -0.000006 -0.000013 -0.005226 4.186710 -62.760400 11.754300 -0.000000 0.000003 -0.000002 -0.000029 -16.578600 -2.192510 6.469440 -0.000001 179.108000 10.996900 178.992000 -39.081100 -0.002282 -0.040193 -0.042613 0.194226 13.309200 -40.985400 0.000008 0.000006 1.085670 7.467470 -61.996200 -11.754300 -0.000006 -0.000006 -0.005833 -0.069309 -19.393700
0.000000 0.000000 0.000000 0.000000 0.000000 -0.000000 -0.101005 93.051500 -0.710277 88.984400 -3.067670 0.644960 15.735700 0.000005 -0.000001 94.488200 86.841300 -94.387700 8.984550 -0.406207 -0.000000 -1.468440 0.486155 0.207207 16.377300 -0.000001 -0.000001 2.414530 -2.126580 3.229720 6.456720 -0.000001 -0.000000 5.315150 -0.801862 -3.724590 12.994200 -0.242716 4.980390 -90.492200 1.563960 -72.526900 5.348090 -0.000007 -0.000001 -65.806400 33.793000 -15.927200 24.328600 0.000019 0.000005 8.011720 16.025900 -27.014200 22.291600 -0.000001 0.000005 0.544258 5.492360 -6.226690 12.994500 -0.242716 -4.980390 87.921300 6.842930 -73.057300 -5.348130 -0.000001 -0.000004 -63.235800 35.749700 -13.818600 -24.328900 0.000322 -0.000009 7.414640 14.994700 -26.707200 -22.291500 -0.000108 -0.000004 -1.456710 5.322960 -0.580474 -2.192480 -6.469440 -0.000000 -177.106000 -8.839990 -3.059910 39.081100 -0.000007 -0.000012 -0.052458 0.179993 16.248300 40.985400 -0.000006 -0.000013 -0.004060 4.104460 -62.707700 11.754300 -0.000000 0.000003 -0.000002 -0.000031 -16.578700 -2.192510 6.469440 -0.000001 179.137000 10.850500 178.970000 -39.081100 -0.002282 -0.040193 -0.040495 0.184740 13.346200 -40.985400 0.000008 0.000006 1.245680 7.372800 -61.981900 -11.754300 -0.000006 -0.000006 -0.005683 -0.067930 -19.337500
0.000000 0.000000 0.000000 0.000000 0.000000 -0.000000 -0.081745 93.070700 -0.892429 88.994700 -3.128540 0.658168 15.735700 0.000005 -0.000001 95.111300 86.807000 -95.028000 8.984550 -0.406207 -0.000000 -1.405860 0.562146 0.173513 16.377300 -0.000001 -0.000001 2.462280 -2.070360 3.227310 6.456720 -0.000001 -0.000000 4.799130 -0.761417 -3.518900 12.994200 -0.242716 4.980390 -90.521700 1.635680 -72.307200 5.348090 -0.000007 -0.000001 -63.004700 29.052500 -18.224400 24.328600 0.000019 0.000005 8.233290 13.093600 -32.578600 22.291600 -0.000001 0.000005 2.996270 5.514570 -7.105360 12.994500 -0.242716 -4.980390 88.000000 6.464750 -72.768600 -5.348130 -0.000001 -0.000004 -60.765500 31.631900 -15.741200 -24.328900 0.000322 -0.000009 8.400730 12.591300 -34.125800 -22.291500 -0.000108 -0.000004 1.014850 5.329620 -0.758880 -2.192480 -6.469440 -0.000000 -177.149000 -8.829880 -3.138470 39.081100 -0.000007 -0.000012 -0.051114 0.176152 16.180900 40.985400 -0.000006 -0.000013 0.001319 4.022360 -62.550800 11.754300 -0.000000 0.000003 -0.000002 -0.000034 -16.578800 -2.192510 6.469440 -0.000001 179.172000 10.808900 178.811000 -39.081100 -0.002282 -0.040193 -0.038226 0.174452 13.399400 -40.985400 0.000008 0.000006 1.418680 7.324230 -61.891600 -11.754300 -0.000006 -0.000006 -0.005797 -0.068976 -19.380200
0.000000 0.000000 0.000000 0.000000 0.000000 -0.000000 -0.070454 93.083100 -1.062420 89.022100 -3.143920 0.769209 15.735700 0.000005 -0.000001 95.581200 86.777000 -95.513400 8.984550 -0.406207 -0.000000 -1.351020 0.621385 0.142929 16.377300 -0.000001 -0.000001 2.679400 -2.010590 3.208700 6.456720 -0.000001 -0.000000 4.448080 -0.779508 -3.340710 12.994200 -0.242716 4.980390 -90.532100 1.643680 -72.059000 5.348090 -0.000007 -0.000001 -58.998000 23.471200 -21.828600 24.328600 0.000019 0.000005 9.084670 10.668800 -40.816400 22.291600 -0.000001 0.000005 6.621550 5.549960 -8.670410 12.994500 -0.242716 -4.980390 87.998400 6.275380 -72.269100 -5.348130 -0.000001 -0.000004 -57.059100 26.275700 -18.768100 -24.328900 0.000322 -0.000009 11.342900 11.492800 -45.182900 -22.291500 -0.000108 -0.000004 6.298320 5.350820 -1.398450 -2.192480 -6.469440 -0.000000 -177.167000 -8.992600 -3.132200 39.081100 -0.000007 -0.000012 -0.050930 0.175856 16.151500 40.985400 -0.000006 -0.000013 0.021070 4.114440 -62.415100 11.754300 -0.000000 0.000003 -0.000002 -0.000026 -16.578500 -2.192510 6.469440 -0.000001 179.108000 10.852700 178.822000 -39.081100 -0.002282 -0.040193 -0.039939 0.182208 13.359500 -40.985400 0.000008 0.000006 1.199360 7.449250 -61.719100 -11.754300 -0.000006 -0.000006 -0.005684 -0.067938 -19.337800
0.000000 0.000000 0.000000 0.000000 0.000000 -0.000000 -0.063331 93.103200 -1.217010 88.970400 -3.155210 0.694492 15.735700 0.000005 -0.000001 95.670400 86.848200 -95.558800 8.984550 -0.406207 -0.000000 -1.493950 0.613680 0.231098 16.377300 -0.000001 -0.000001 2.955500 -1.931560 3.180340 6.456720 -0.000001 -0.000000 4.432420 -0.710867 -3.368390 12.994200 -0.242716 4.980390 -90.434600 1.327160 -71.865800 5.348090 -0.000007 -0.000001 -55.181000 16.760700 -26.263500 24.328600 0.000019 0.000005 10.814300 9.135600 -50.271500 22.291600 -0.000001 0.000005 9.610030 5.572860 -9.818410 12.994500 -0.242716 -4.980390 88.046300 5.925550 -71.715100 -5.348130 -0.000001 -0.000004 -53.153500 19.647000 -23.210700 -24.328900 0.000322 -0.000009 15.057800 9.856810 -57.534600 -22.291500 -0.000108 -0.000004 9.981610 5.360540 -1.689810 -2.192480 -6.469440 -0.000000 -177.150000 -9.012030 -3.308480 39.081100 -0.000007 -0.000012 -0.048697 0.168420 16.126400 40.985400 -0.000006 -0.000013 0.037335 4.130230 -62.289500 11.754300 -0.000000 0.000003 -0.000002 -0.000030 -16.578700 -2.192510 6.469440 -0.000001 179.179000 10.903600 178.734000 -39.081100 -0.002282 -0.040193 -0.039191 0.181821 13.163700 -40.985400 0.000008 0.000006 1.120970 7.521190 -61.499200 -11.754300 -0.000006 -0.000006 -0.005534 -0.066546 -19.281100
0.000000 0.000000 0.000000 0.000000 0.000000 -0.000000 -0.047493 93.129000 -1.344560 88.971000 -3.150220 0.643309 15.735700 0.000005 -0.000001 95.370600 86.965500 -95.235400 8.984550 -0.406207 -0.000000 -1.724380 0.556702 0.278708 16.377300 -0.000001 -0.000001 3.181980 -1.919450 3.264490 6.456720 -0.000001 -0.000000 4.921920 -0.595964 -3.467530 12.994200 -0.242716 4.980390 -90.212300 0.650353 -71.924000 5.348090 -0.000007 -0.000001 -52.467500 8.812870 -31.076600 24.328600 0.000019 0.000005 11.658600 7.044580 -59.272700 22.291600 -0.000001 0.000005 12.539600 5.585920 -10.528900 12.994500 -0.242716 -4.980390 88.160100 5.487060 -71.430700 -5.348130 -0.000001 -0.000004 -49.858400 11.857800 -28.826500 -24.328900 0.000322 -0.000009 16.089400 6.576130 -68.352000 -22.291500 -0.000108 -0.000004 13.034700 5.361270 -1.716440 -2.192480 -6.469440 -0.000000 -177.176000 -9.000120 -3.368810 39.081100 -0.000007 -0.000012 -0.047282 0.165365 15.956400 40.985400 -0.000006 -0.000013 0.043031 4.141950 -62.114000 11.754300 -0.000000 0.000003 -0.000001 -0.000019 -16.578200 -2.192510 6.469440 -0.000001 179.198000 10.886000 178.686000 -39.081100 -0.002282 -0.040193 -0.037912 0.179150 12.965100 -40.985400 0.000008 0.000006 1.092540 7.523760 -61.303800 -11.754300 -0.000006 -0.000006 -0.005972 -0.070581 -19.445600
0.000000 0.000000 0.000000 0.000000 0.000000 -0.000000 -0.032293 93.155300 -1.449120 88.961600 -3.250750 0.576445 15.735700 0.000005 -0.000001 94.680200 87.094100 -94.533700 8.984550 -0.406207 -0.000000 -1.974170 0.461644 0.300793 16.377300 -0.000001 -0.000001 3.270020 -1.902150 3.342220 6.456720 -0.000001 -0.000000 5.676260 -0.497202 -3.358670 12.994200 -0.242716 4.980390 -89.891700 -0.338649 -72.254200 5.348090 -0.000007 -0.000001 -51.935700 -0.443086 -36.079900 24.328600 0.000019 0.000005 12.736100 5.433120 -67.268700 22.291600 -0.000001 0.000005 15.188200 5.595390 -11.061300 12.994500 -0.242716 -4.980390 88.323100 5.054170 -71.618200 -5.348130 -0.000001 -0.000004 -47.898500 3.032860 -35.657500 -24.328900 0.000322 -0.000009 17.088800 4.330480 -76.197300 -22.291500 -0.000108 -0.000004 15.940700 5.367810 -1.918360 -2.192480 -6.469440 -0.000000 -177.210000 -8.987580 -3.407200 39.081100 -0.000007 -0.000012 -0.044787 0.158608 15.768300 40.985400 -0.000006 -0.000013 0.040426 4.030930 -61.954700 11.754300 -0.000000 0.000003 -0.000002 -0.000028 -16.578600 -2.192510 6.469440 -0.000001 179.258000 10.795800 178.598000 -39.081100 -0.002282 -0.040193 -0.034129 0.164417 12.836000 -40.985400 0.000008 0.000006 1.324510 7.490780 -61.193300 -11.754300 -0.000006 -0.000006 -0.005827 -0.069257 -19.391600
0.000000 0.000000 0.000000 0.000000 0.000000 -0.000000 -0.009350 93.161600 -1.486170 88.933600 -3.460780 0.628781 15.735700 0.000005 -0.000001 95.067500 87.173600 -94.912700 8.984550 -0.406207 -0.000000 -2.135980 0.485790 0.318742 16.377300 -0.000001 -0.000001 3.398230 -1.955990 3.495220 6.456720 -0.000001 -0.000000 6.215390 -0.480562 -3.235100 12.994200 -0.242716 4.980390 -89.558400 -1.422110 -72.744600 5.348090 -0.000007 -0.000001 -53.178300 -9.609550 -42.027700 24.328600 0.000019 0.000005 13.219700 4.089030 -73.115300 22.291600 -0.000001 0.000005 18.365800 5.609100 -11.880400 12.994500 -0.242716 -4.980390 88.579500 4.429840 -72.202500 -5.348130 -0.000001 -0.000004 -48.138900 -6.236660 -43.226300 -24.328900 0.000322 -0.000009 18.722600 3.133550 -80.838400 -22.291500 -0.000108 -0.000004 17.980900 5.374070 -2.110790 -2.192480 -6.469440 -0.000000 -177.177000 -9.260720 -3.337400 39.081100 -0.000007 -0.000012 -0.046040 0.163296 15.745200 40.985400 -0.000006 -0.000013 0.056534 4.071600 -61.936900 11.754300 -0.000000 0.000003 -0.000002 -0.000033 -16.578800 -2.192510 6.469440 -0.000001 179.290000 10.711900 178.611000 -39.081100 -0.002282 -0.040193 -0.032291 0.156543 12.820600 -40.985400 0.000008 0.000006 1.430570 7.582020 -61.154000 -11.754300 -0.000006 -0.000006 -0.005508 -0.066296 -19.270900
